# xmcd
# 
# Track frame offsets:
#     150
#     11400
#     21825
#     25350
#     39900
#     55500
#     74700
#     82800
#     93900
#     106049
#     118722
#     129225
# 
# Disc length: 1932
# 
# Revision: 0
# Processed by: cddbd v1.5.2PL0 Copyright (c) Steve Scherf et al.
# Submitted via: fre:ac v1.0.31
# 
DISCID=87078a0c
DTITLE=Pépé et sa guitare - Engagé
DYEAR=2013
DGENRE=Blues
TTITLE0=Je m'engage
TTITLE1=Les oeufs
TTITLE2=Avec un break
TTITLE3=Barre ça là
TTITLE4=Ça pue
TTITLE5=Chaque seconde
TTITLE6=Patrice
TTITLE7=Mal fourré
TTITLE8=Su'l perron
TTITLE9=Comme un homme
TTITLE10=Bout' de bat
TTITLE11=J'tire la plug
EXTD=
EXTT0=
EXTT1=
EXTT2=
EXTT3=
EXTT4=
EXTT5=
EXTT6=
EXTT7=
EXTT8=
EXTT9=
EXTT10=
EXTT11=
PLAYORDER=
